<svg xmlns="http://www.w3.org/2000/svg" viewBox="0 0 32 32" width="166" height="166" style="border-color: rgba(0,0,0,0);border-width: bpx;border-style: undefined" filter="none">
    <path d="M6.437 28l-0.027 0.027-0.028-0.027h-2.393c-0.731-0.001-1.323-0.593-1.323-1.324v0-21.352c0.005-0.729 0.594-1.318 1.322-1.324h24.022c0.731 0 1.323 0.593 1.323 1.324v21.352c-0.005 0.729-0.594 1.318-1.322 1.324h-21.574zM26.667 20v-13.333h-21.333v18.667l13.333-13.333 8 8zM26.667 23.771l-8-8-9.563 9.563h17.563v-1.563zM10.667 14.667c-1.473 0-2.667-1.194-2.667-2.667s1.194-2.667 2.667-2.667v0c1.473 0 2.667 1.194 2.667 2.667s-1.194 2.667-2.667 2.667v0z"></path>
  </svg>